<svg xmlns="http://www.w3.org/2000/svg" xmlns:xlink="http://www.w3.org/1999/xlink" version="1.1" xml:space="preserve" viewBox="163.43 133.94 72.84 72.84">
<desc>Created with Fabric.js 5.3.0</desc>
<defs>
</defs>
<g transform="matrix(0.9104483047 0 0 0.9104483047 199.8525073746 170.3539823009)" id="dZW2ml9Nz67LAb4AkhQVc">
<linearGradient id="SVGID_3" gradientUnits="userSpaceOnUse" gradientTransform="matrix(1 0 0 1 -40.5 -40.5)" x1="0" y1="40.5" x2="81" y2="40.5">
<stop offset="0%" style="stop-color:#ffffff;stop-opacity: 1"/>
<stop offset="50%" style="stop-color:#7e7e7e;stop-opacity: 1"/>
<stop offset="100%" style="stop-color:#000000;stop-opacity: 1"/>
</linearGradient>
<g style="opacity: 0.7;" vector-effect="non-scaling-stroke">
		<g transform="matrix(1 0 0 1 0 0)" id="nB5gN3YSM6mnFKWubvRQ4">
<path style="stroke: none; stroke-width: 1; stroke-dasharray: none; stroke-linecap: butt; stroke-dashoffset: 0; stroke-linejoin: miter; stroke-miterlimit: 4; fill: rgb(179,181,179); fill-rule: nonzero; opacity: 1;" vector-effect="non-scaling-stroke" transform=" translate(-40, -40)" d="M 40 0 C 17.9 0 0 17.9 0 40 C 0 62.1 17.9 80 40 80 C 62.1 80 80 62.1 80 40 C 80 17.9 62.1 0 40 0 z" stroke-linecap="round"/>
</g>
		<g transform="matrix(1 0 0 1 -0.05 0)" id="_2jAVsUUQ71RQF_cf3Pwu">
<path style="stroke: none; stroke-width: 1; stroke-dasharray: none; stroke-linecap: butt; stroke-dashoffset: 0; stroke-linejoin: miter; stroke-miterlimit: 4; fill: rgb(255,255,255); fill-rule: nonzero; opacity: 1;" vector-effect="non-scaling-stroke" transform=" translate(-39.95, -40)" d="M 24.8 66.3 L 48.8 45.099999999999994 L 55.099999999999994 13.699999999999996 L 31.099999999999994 34.89999999999999 L 24.8 66.3 z" stroke-linecap="round"/>
</g>
		<g transform="matrix(1 0 0 1 -3.35 9.25)" id="LIH_HKmOmuqihOtM_i5AD">
<path style="stroke: none; stroke-width: 1; stroke-dasharray: none; stroke-linecap: butt; stroke-dashoffset: 0; stroke-linejoin: miter; stroke-miterlimit: 4; fill: rgb(179,181,179); fill-rule: nonzero; opacity: 1;" vector-effect="non-scaling-stroke" transform=" translate(-36.65, -49.25)" d="M 28.5 59.9 L 32.8 38.599999999999994 L 44.8 45.49999999999999 L 28.5 59.9 z" stroke-linecap="round"/>
</g>
</g>
</g>
</svg>